<!-- fireIcon -->
<svg role="img" viewBox="0 0 24 24" xmlns="http://www.w3.org/2000/svg"><title>Fireship</title><path d="M9.245.05c-.042-.035-.14-.035-.22-.05-.041.06-.098.113-.113.166a3.114 3.114 0 0 0-.064.416 15.42 15.42 0 0 1-3.742 8.693c-1.258 1.474-2.51 2.982-3.44 4.585-2.293 3.972-.249 8.031 4.763 9.804.163.06.348.087.76.181-1.701-1.534-2.57-3.1-2.28-4.944.284-1.765 1.172-3.337 2.525-4.77a1.043 1.043 0 0 1 .099.549c-.068 1.572.453 2.96 2.063 4.055.741.507 1.41 1.081 2.079 1.644.684.57.884 1.263.688 2.015-.09.366-.227.725-.378 1.171 1.145-.11 2.203-.264 2.914-.9.68-.604 1.183-1.322 1.909-2.154.049.707.15 1.255.113 1.8-.045.566-.22 1.126-.336 1.689 3.477-.525 6.546-3.934 6.682-7.427.098-2.543-2.071-6.274-3.893-6.637l.302.688c.631 1.391.817 2.8.416 4.256-.4 1.448-2.426 3.073-4.214 3.277.06-.144.087-.28.17-.39 1.927-2.596 1.946-5.31.854-8.084C15.44 5.98 12.632 2.88 9.245.053Z"/></svg>
<!-- shareIcon -->
<svg xmlns="http://www.w3.org/2000/svg" fill="none" viewBox="0 0 24 24" stroke-width="1.5" stroke="currentColor" class="w-6 h-6">
  <path stroke-linecap="round" stroke-linejoin="round" d="M7.217 10.907a2.25 2.25 0 100 2.186m0-2.186c.18.324.283.696.283 1.093s-.103.77-.283 1.093m0-2.186l9.566-5.314m-9.566 7.5l9.566 5.314m0 0a2.25 2.25 0 103.935 2.186 2.25 2.25 0 00-3.935-2.186zm0-12.814a2.25 2.25 0 103.933-2.185 2.25 2.25 0 00-3.933 2.185z" />
</svg>
<!-- list-bullet -->
<svg xmlns="http://www.w3.org/2000/svg" fill="none" viewBox="0 0 24 24" stroke-width="1.5" stroke="currentColor" class="w-6 h-6">
  <path stroke-linecap="round" stroke-linejoin="round" d="M8.25 6.75h12M8.25 12h12m-12 5.25h12M3.75 6.75h.007v.008H3.75V6.75zm.375 0a.375.375 0 11-.75 0 .375.375 0 01.75 0zM3.75 12h.007v.008H3.75V12zm.375 0a.375.375 0 11-.75 0 .375.375 0 01.75 0zm-.375 5.25h.007v.008H3.75v-.008zm.375 0a.375.375 0 11-.75 0 .375.375 0 01.75 0z" />
</svg>

 <!-- demonstrations -->
 <svg xmlns="http://www.w3.org/2000/svg" width="44" height="44" viewBox="0 0 24 24" fill="none" stroke="currentColor" stroke-width="1.5" stroke-linecap="round" stroke-linejoin="round" class="feather feather-user"><path d="M20 21v-2a4 4 0 0 0-4-4H8a4 4 0 0 0-4 4v2"></path><circle cx="12" cy="7" r="4"></circle></svg>

<!-- admin  -->
<svg xmlns="http://www.w3.org/2000/svg" fill="none" viewBox="0 0 24 24" stroke-width="1.5" stroke="currentColor" class="w-6 h-6">
  <path stroke-linecap="round" stroke-linejoin="round" d="M17.982 18.725A7.488 7.488 0 0012 15.75a7.488 7.488 0 00-5.982 2.975m11.963 0a9 9 0 10-11.963 0m11.963 0A8.966 8.966 0 0112 21a8.966 8.966 0 01-5.982-2.275M15 9.75a3 3 0 11-6 0 3 3 0 016 0z" />
</svg>

<!-- Likes  -->
<svg xmlns="http://www.w3.org/2000/svg" fill="none" viewBox="0 0 24 24" stroke-width="1.5" stroke="currentColor" class="w-6 h-6">
  <path stroke-linecap="round" stroke-linejoin="round" d="M21 8.25c0-2.485-2.099-4.5-4.688-4.5-1.935 0-3.597 1.126-4.312 2.733-.715-1.607-2.377-2.733-4.313-2.733C5.1 3.75 3 5.765 3 8.25c0 7.22 9 12 9 12s9-4.78 9-12z" />
</svg>




